<?xml version="1.0" encoding="utf-8"?>
<!DOCTYPE svg PUBLIC '-//W3C//DTD SVG 1.0//EN'
'http://www.w3.org/TR/2001/REC-SVG-20010904/DTD/svg10.dtd'>
<svg fill-opacity="1" xmlns:xlink="http://www.w3.org/1999/xlink"
color-rendering="auto" color-interpolation="auto"
text-rendering="auto" stroke="black" stroke-linecap="square"
width="1130" stroke-miterlimit="10" shape-rendering="auto"
stroke-opacity="1" fill="black" stroke-dasharray="none"
font-weight="normal" stroke-width="1" viewBox="-20 60 1130 330"
height="330" xmlns="http://www.w3.org/2000/svg"
font-family="'Dialog'" font-style="normal" stroke-linejoin="miter"
font-size="12px" stroke-dashoffset="0" image-rendering="auto">
  <!--Generated by the Batik Graphics2D SVG Generator-->
  <defs id="genericDefs" />
  <g>
    <defs id="defs1">
      <clipPath clipPathUnits="userSpaceOnUse" id="clipPath1">
        <path d="M0 0 L2147483647 0 L2147483647 2147483647 L0 2147483647 L0 0 Z" />
      </clipPath>
      <clipPath clipPathUnits="userSpaceOnUse" id="clipPath2">
        <path d="M0 0 L0 70 L160 70 L160 0 Z" />
      </clipPath>
      <clipPath clipPathUnits="userSpaceOnUse" id="clipPath3">
        <path d="M0 0 L0 90 L100 90 L100 0 Z" />
      </clipPath>
      <clipPath clipPathUnits="userSpaceOnUse" id="clipPath4">
        <path d="M0 0 L0 70 L100 70 L100 0 Z" />
      </clipPath>
      <clipPath clipPathUnits="userSpaceOnUse" id="clipPath5">
        <path d="M0 0 L0 60 L100 60 L100 0 Z" />
      </clipPath>
      <clipPath clipPathUnits="userSpaceOnUse" id="clipPath6">
        <path d="M0 0 L0 60 L170 60 L170 0 Z" />
      </clipPath>
      <clipPath clipPathUnits="userSpaceOnUse" id="clipPath7">
        <path d="M0 0 L0 80 L190 80 L190 0 Z" />
      </clipPath>
      <clipPath clipPathUnits="userSpaceOnUse" id="clipPath8">
        <path d="M0 0 L0 140 L320 140 L320 0 Z" />
      </clipPath>
      <clipPath clipPathUnits="userSpaceOnUse" id="clipPath9">
        <path d="M0 0 L0 70 L210 70 L210 0 Z" />
      </clipPath>
      <clipPath clipPathUnits="userSpaceOnUse" id="clipPath10">
        <path d="M0 0 L0 90 L80 90 L80 0 Z" />
      </clipPath>
      <clipPath clipPathUnits="userSpaceOnUse" id="clipPath11">
        <path d="M0 0 L0 50 L130 50 L130 0 Z" />
      </clipPath>
      <clipPath clipPathUnits="userSpaceOnUse" id="clipPath12">
        <path d="M0 0 L0 80 L340 80 L340 0 Z" />
      </clipPath>
      <clipPath clipPathUnits="userSpaceOnUse" id="clipPath13">
        <path d="M0 0 L0 40 L140 40 L140 0 Z" />
      </clipPath>
      <clipPath clipPathUnits="userSpaceOnUse" id="clipPath14">
        <path d="M0 0 L0 120 L250 120 L250 0 Z" />
      </clipPath>
      <clipPath clipPathUnits="userSpaceOnUse" id="clipPath15">
        <path d="M0 0 L0 160 L230 160 L230 0 Z" />
      </clipPath>
      <clipPath clipPathUnits="userSpaceOnUse" id="clipPath16">
        <path d="M0 0 L0 120 L50 120 L50 0 Z" />
      </clipPath>
    </defs>
    <g fill="rgb(255,255,255)" fill-opacity="0"
    transform="translate(930,300)" stroke-opacity="0"
    stroke="rgb(255,255,255)">
      <rect x="0.5" width="158.5" height="68.5" y="0.5"
      clip-path="url(#clipPath2)" stroke="none" />
    </g>
    <g transform="translate(930,300)">
      <rect fill="none" x="0.5" width="158.5" height="68.5" y="0.5"
      clip-path="url(#clipPath2)" />
      <text x="35" font-size="14px" y="18.1094"
      clip-path="url(#clipPath2)" font-family="sans-serif"
      stroke="none" xml:space="preserve">
Dependency
</text>
      <path fill="none" d="M1 24.1094 L159 24.1094"
      clip-path="url(#clipPath2)" />
      <text x="5" font-size="14px" y="39.2188"
      clip-path="url(#clipPath2)" font-family="sans-serif"
      stroke="none" xml:space="preserve">
+ asFile(): Path
</text>
    </g>
    <g fill="rgb(255,255,255)" fill-opacity="0"
    transform="translate(690,200)" stroke-opacity="0"
    stroke="rgb(255,255,255)">
      <rect x="0.5" width="98.5" height="88.5" y="0.5"
      clip-path="url(#clipPath3)" stroke="none" />
    </g>
    <g transform="translate(690,200)">
      <rect fill="none" x="0.5" width="98.5" height="88.5" y="0.5"
      clip-path="url(#clipPath3)" />
      <text x="34" font-size="14px" y="18.1094"
      clip-path="url(#clipPath3)" font-family="sans-serif"
      stroke="none" xml:space="preserve">
Pom
</text>
    </g>
    <g fill="rgb(255,255,255)" fill-opacity="0"
    transform="translate(950,160)" stroke-opacity="0"
    stroke="rgb(255,255,255)">
      <rect x="0.5" width="98.5" height="68.5" y="0.5"
      clip-path="url(#clipPath4)" stroke="none" />
    </g>
    <g transform="translate(950,160)">
      <rect fill="none" x="0.5" width="98.5" height="68.5" y="0.5"
      clip-path="url(#clipPath4)" />
      <text x="34" font-size="14px" y="18.1094"
      clip-path="url(#clipPath4)" font-family="sans-serif"
      stroke="none" xml:space="preserve">
Pom
</text>
    </g>
    <g fill="rgb(255,255,255)" fill-opacity="0"
    transform="translate(410,270)" stroke-opacity="0"
    stroke="rgb(255,255,255)">
      <rect x="0.5" width="98.5" height="68.5" y="0.5"
      clip-path="url(#clipPath4)" stroke="none" />
    </g>
    <g transform="translate(410,270)">
      <rect fill="none" x="0.5" width="98.5" height="68.5" y="0.5"
      clip-path="url(#clipPath4)" />
      <text x="5" font-size="14px" y="18.1094"
      clip-path="url(#clipPath4)" font-family="sans-serif"
      stroke="none" xml:space="preserve">
Dependency
</text>
    </g>
    <g fill="rgb(255,255,255)" fill-opacity="0"
    transform="translate(210,230)" stroke-opacity="0"
    stroke="rgb(255,255,255)">
      <rect x="0.5" width="98.5" height="58.5" y="0.5"
      clip-path="url(#clipPath5)" stroke="none" />
    </g>
    <g transform="translate(210,230)">
      <rect fill="none" x="0.5" width="98.5" height="58.5" y="0.5"
      clip-path="url(#clipPath5)" />
      <text x="27" font-size="14px" y="18.1094"
      clip-path="url(#clipPath5)" font-family="sans-serif"
      stroke="none" xml:space="preserve">
Parent
</text>
    </g>
    <g fill="rgb(255,255,255)" fill-opacity="0"
    transform="translate(200,80)" stroke-opacity="0"
    stroke="rgb(255,255,255)">
      <rect x="0.5" width="168.5" height="58.5" y="0.5"
      clip-path="url(#clipPath6)" stroke="none" />
    </g>
    <g transform="translate(200,80)">
      <rect fill="none" x="0.5" width="168.5" height="58.5" y="0.5"
      clip-path="url(#clipPath6)" />
      <text x="23" font-size="14px" y="18.1094"
      clip-path="url(#clipPath6)" font-family="sans-serif"
      stroke="none" xml:space="preserve">
BaseDependency
</text>
      <path fill="none" d="M1 24.1094 L169 24.1094"
      clip-path="url(#clipPath6)" />
      <text x="5" font-size="14px" y="39.2188"
      clip-path="url(#clipPath6)" font-family="sans-serif"
      stroke="none" xml:space="preserve">
file(): .../pom.xml
</text>
    </g>
    <g fill="rgb(255,255,255)" fill-opacity="0"
    transform="translate(0,230)" stroke-opacity="0"
    stroke="rgb(255,255,255)">
      <rect x="0.5" width="98.5" height="58.5" y="0.5"
      clip-path="url(#clipPath5)" stroke="none" />
    </g>
    <g transform="translate(0,230)">
      <rect fill="none" x="0.5" width="98.5" height="58.5" y="0.5"
      clip-path="url(#clipPath5)" />
      <text x="33" font-size="14px" y="18.1094"
      clip-path="url(#clipPath5)" font-family="sans-serif"
      stroke="none" xml:space="preserve">
Root
</text>
      <text x="22" font-size="14px" y="34.2188"
      clip-path="url(#clipPath5)" font-family="sans-serif"
      stroke="none" xml:space="preserve">
pomFile
</text>
    </g>
    <g transform="translate(760,260)">
      <path fill="none" d="M31.5 10.5 L80.5 10.5"
      clip-path="url(#clipPath7)" />
      <path fill="none" d="M80.5 10.5 L80.5 50.5"
      clip-path="url(#clipPath7)" />
      <path fill="none" d="M80.5 50.5 L169.5 50.5"
      clip-path="url(#clipPath7)" />
      <rect x="8.5" y="0.5" clip-path="url(#clipPath7)"
      fill="white" width="45" height="20" stroke="none" />
      <rect fill="none" x="8.5" width="45" height="20" y="0.5"
      clip-path="url(#clipPath7)" />
      <text x="12.7148" xml:space="preserve" y="15.625"
      clip-path="url(#clipPath7)" font-family="sans-serif"
      stroke="none">
direct
</text>
      <path fill="none" d="M158.7417 57 L170 50.5 L158.7417 44"
      clip-path="url(#clipPath7)" />
      <text x="123.2852" font-size="14px" y="64.1094"
      clip-path="url(#clipPath7)" font-family="sans-serif"
      stroke="none" xml:space="preserve">
0..1
</text>
    </g>
    <g stroke-dasharray="8,5" stroke-miterlimit="5"
    transform="translate(630,220)" stroke-linecap="butt">
      <path fill="none" d="M59.5 10.5 L10.5 10.5"
      clip-path="url(#clipPath8)" />
      <path fill="none" d="M10.5 10.5 L10.5 120.5"
      clip-path="url(#clipPath8)" />
      <path fill="none" d="M10.5 120.5 L300.5 120.5"
      clip-path="url(#clipPath8)" />
      <path fill="none" stroke-miterlimit="10"
      stroke-dasharray="none" d="M48.7417 4 L60 10.5 L48.7417 17"
      clip-path="url(#clipPath8)" stroke-linecap="square" />
    </g>
    <g transform="translate(760,180)">
      <path fill="none" d="M31.5 50.5 L90.5 50.5"
      clip-path="url(#clipPath9)" />
      <path fill="none" d="M90.5 50.5 L90.5 10.5"
      clip-path="url(#clipPath9)" />
      <path fill="none" d="M90.5 10.5 L189.5 10.5"
      clip-path="url(#clipPath9)" />
      <rect x="5.5" y="40.5" clip-path="url(#clipPath9)"
      fill="white" width="50" height="20" stroke="none" />
      <rect fill="none" x="5.5" width="50" height="20" y="40.5"
      clip-path="url(#clipPath9)" />
      <text x="10.2012" xml:space="preserve" y="55.625"
      clip-path="url(#clipPath9)" font-family="sans-serif"
      stroke="none">
parent
</text>
      <path fill="none" d="M178.7417 17 L190 10.5 L178.7417 4"
      clip-path="url(#clipPath9)" />
      <text x="143.2852" font-size="14px" y="24.1094"
      clip-path="url(#clipPath9)" font-family="sans-serif"
      stroke="none" xml:space="preserve">
0..1
</text>
    </g>
    <g transform="translate(280,190)">
      <path fill="none" d="M10.5 39.5 L10.5 10.5"
      clip-path="url(#clipPath10)" />
      <path fill="none" d="M10.5 10.5 L40.5 10.5"
      clip-path="url(#clipPath10)" />
      <path fill="none" d="M40.5 10.5 L60.5 30.5"
      clip-path="url(#clipPath10)" />
      <path fill="none" d="M60.5 30.5 L60.5 60.5"
      clip-path="url(#clipPath10)" />
      <path fill="none" d="M60.5 60.5 L30.5 60.5"
      clip-path="url(#clipPath10)" />
      <path fill="none" d="M17 28.7417 L10.5 40 L4 28.7417"
      clip-path="url(#clipPath10)" />
      <text x="14" font-size="14px" y="24"
      clip-path="url(#clipPath10)" font-family="sans-serif"
      stroke="none" xml:space="preserve">
1
</text>
      <text x="49" font-size="14px" y="74.1094"
      clip-path="url(#clipPath10)" font-family="sans-serif"
      stroke="none" xml:space="preserve">
1
</text>
    </g>
    <g transform="translate(300,270)">
      <path fill="none" d="M109.5 20.5 L30.5 20.5"
      clip-path="url(#clipPath11)" />
      <path fill="none" d="M30.5 20.5 L30.5 10.5"
      clip-path="url(#clipPath11)" />
      <path fill="none" d="M30.5 10.5 L10.5 10.5"
      clip-path="url(#clipPath11)" />
      <path fill="none" d="M98.7417 14 L110 20.5 L98.7417 27"
      clip-path="url(#clipPath11)" />
      <text x="63.3193" font-size="14px" y="34.1094"
      clip-path="url(#clipPath11)" font-family="sans-serif"
      stroke="none" xml:space="preserve">
0..n
</text>
    </g>
    <g transform="translate(90,270)">
      <path fill="none" d="M319.5 50.5 L100.5 50.5"
      clip-path="url(#clipPath12)" />
      <path fill="none" d="M100.5 50.5 L50.5 10.5"
      clip-path="url(#clipPath12)" />
      <path fill="none" d="M50.5 10.5 L10.5 10.5"
      clip-path="url(#clipPath12)" />
      <path fill="none" d="M308.7417 44 L320 50.5 L308.7417 57"
      clip-path="url(#clipPath12)" />
      <text x="273.3193" font-size="14px" y="64.1094"
      clip-path="url(#clipPath12)" font-family="sans-serif"
      stroke="none" xml:space="preserve">
0..n
</text>
      <text x="29" font-size="14px" y="24.1094"
      clip-path="url(#clipPath12)" font-family="sans-serif"
      stroke="none" xml:space="preserve">
1
</text>
    </g>
    <g transform="translate(90,230)">
      <path fill="none" d="M119.5 10.5 L10.5 10.5"
      clip-path="url(#clipPath13)" />
      <path fill="none" d="M108.7417 4 L120 10.5 L108.7417 17"
      clip-path="url(#clipPath13)" />
      <text x="73.2852" font-size="14px" y="24.1094"
      clip-path="url(#clipPath13)" font-family="sans-serif"
      stroke="none" xml:space="preserve">
0..1
</text>
      <text x="29" font-size="14px" y="24.1094"
      clip-path="url(#clipPath13)" font-family="sans-serif"
      stroke="none" xml:space="preserve">
1
</text>
    </g>
    <g stroke-dasharray="8,5" stroke-miterlimit="5"
    transform="translate(40,130)" stroke-linecap="butt">
      <path fill="none" d="M230.5 11.5 L230.5 50.5"
      clip-path="url(#clipPath14)" />
      <path fill="none" d="M230.5 50.5 L10.5 50.5"
      clip-path="url(#clipPath14)" />
      <path fill="none" d="M10.5 50.5 L10.5 100.5"
      clip-path="url(#clipPath14)" />
      <path fill="white" d="M224 22.2583 L230.5 11 L237 22.2583 Z"
      clip-path="url(#clipPath14)" stroke="none" />
      <path fill="none" stroke-miterlimit="10"
      stroke-dasharray="none"
      d="M224 22.2583 L230.5 11 L237 22.2583 Z"
      clip-path="url(#clipPath14)" stroke-linecap="square" />
    </g>
    <g stroke-dasharray="8,5" stroke-miterlimit="5"
    transform="translate(260,130)" stroke-linecap="butt">
      <path fill="none" d="M10.5 11.5 L10.5 50.5"
      clip-path="url(#clipPath15)" />
      <path fill="none" d="M10.5 50.5 L210.5 50.5"
      clip-path="url(#clipPath15)" />
      <path fill="none" d="M210.5 50.5 L210.5 140.5"
      clip-path="url(#clipPath15)" />
      <path fill="white" d="M4 22.2583 L10.5 11 L17 22.2583 Z"
      clip-path="url(#clipPath15)" stroke="none" />
      <path fill="none" stroke-miterlimit="10"
      stroke-dasharray="none" d="M4 22.2583 L10.5 11 L17 22.2583 Z"
      clip-path="url(#clipPath15)" stroke-linecap="square" />
    </g>
    <g stroke-dasharray="8,5" stroke-miterlimit="5"
    transform="translate(240,130)" stroke-linecap="butt">
      <path fill="none" d="M30.5 11.5 L30.5 50.5"
      clip-path="url(#clipPath16)" />
      <path fill="none" d="M30.5 50.5 L10.5 50.5"
      clip-path="url(#clipPath16)" />
      <path fill="none" d="M10.5 50.5 L10.5 100.5"
      clip-path="url(#clipPath16)" />
      <path fill="white" d="M24 22.2583 L30.5 11 L37 22.2583 Z"
      clip-path="url(#clipPath16)" stroke="none" />
      <path fill="none" stroke-miterlimit="10"
      stroke-dasharray="none"
      d="M24 22.2583 L30.5 11 L37 22.2583 Z"
      clip-path="url(#clipPath16)" stroke-linecap="square" />
    </g>
  </g>
</svg>
